<?xml version="1.0" encoding="UTF-8"?>
<svg id="Layer_1" data-name="Layer 1" xmlns="http://www.w3.org/2000/svg" viewBox="0 0 612 406.8">
  <defs>
    <style>
      .cls-1 {
        fill: #FF8080;
        stroke-width: 0px;
      }
    </style>
  </defs>
  <path class="cls-1" d="m366.01,88.87v1.01s-.11-.43,0-1.01Z"/>
  <path class="cls-1" d="m319,153.87c-1.06,7.82-2.77,14.16-4.74,20.55-2.71,8.62-7.13,22.41-16.45,39.81-9.85,18.47-38.48,72.12-100.65,103.31-.85.43-1.54.75-2.55,1.22-13.09,6.28-57.59,25.18-101.61,6.55-58.23-24.64-69.3-89.37-71.11-99.69-7.77-44.76,3.51-111.4,58.81-143.28,30.39-17.51,62.38-17.78,85.59-14.26,15.49,2.4,27.15,6.44,31.78,8.25.8.32,1.33,1.06,1.33,1.97v55.2c0,2.4-3.35,2.93-4.1.64-3.99-11.87-11.71-26.51-26.93-37.21-.69-.48-1.38-.96-2.08-1.38-28.21-18.47-63.45-11.98-85.59.85-27.46,15.91-36.51,42.74-38.38,48.6-15.06,48.28,16.98,103.21,58.87,128.22,6.97,4.21,39.71,23.79,79.31,15.54,22.09-4.63,36.19-16.02,51.63-28.53,0,0,20.23-16.45,37.95-42,5.43-7.82,10.22-16.18,10.22-16.18,3.25-5.38,6.17-10.75,8.46-16.23,8.55-20.39,12.54-50.05,4.16-64.51-.04-.07-.08-.14-.11-.21-.17-.39-.35-.82-.52-1.22-.05-.11-.1-.22-.17-.32l-.76-1.23c-.28-.51-.59-1.01-.94-1.52,0,0-.49-.71-1.03-1.35-.71-.86-3.52-3.52-6.76-4.91-6-2.57-12.89-.51-15.09.15-6.8,2.04-11,6.01-13.17,8.11-1.31,1.27-5.72,5.73-8.68,13.1-1.98,4.94-2.56,9.34-2.73,12.28h0c0,28.62,24.46,51.24,24.46,51.25,0,0,0,0,0,0,0,0,0,0,.01.02.01.02.04.05.06.1.61,1.19-2.03,3.97-4.66,5.44-.62.35-2.71,1.51-3.54.79-.08-.07-.13-.14-.16-.19-2.96-3-6.92-7.41-10.86-13.27-6.82-10.14-23.81-35.37-14.07-60.3,6.81-17.42,23.42-26.62,31.03-28.8,7.08-2.02,14.53-2.77,22.35-1.81,3.94.48,7.93,1.49,11.82,3.3,1.97.85,3.83,1.97,5.59,3.41,1.81,1.28,3.57,2.66,4.95,4.42,6.12,6.71,8.62,15.28,9.47,22.99.9,7.82.53,15.22-.43,22.36Z"/>
  <path class="cls-1" d="m338.39,307.53c2.32,2.03,2.19,5.67-.24,7.56-25.63,19.88-58.71,23.73-81.54,10.42-5.98-3.53-11.31-8.25-15.8-13.83-1.52-1.89-1.36-4.83.35-6.54l6.12-6.12c1.85-1.85,4.86-1.83,6.74-.03,2.89,2.77,6.1,5.07,9.57,6.78,16.01,7.97,38.07,3.7,55.96-9.64,1.82-1.35,4.32-1.28,6.03.21l12.81,11.2Z"/>
  <path class="cls-1" d="m367.47,268.59l-11.33-8.07c-2.06-1.47-2.87-4.11-2.03-6.5,2.19-6.26,3.57-12.62,3.98-18.94,2.23-24.92-7.46-49.12-24.8-65.72-2.22-2.12-2.31-5.63-.25-7.9l13.99-15.35c2.25-2.47,6.13-2.51,8.43-.09,30,31.47,38.54,81.26,20.56,120.31-1.5,3.26-5.62,4.33-8.55,2.25Z"/>
  <path class="cls-1" d="m428.65,325.21c.01,1.99-1.68,3.56-3.67,3.38-10.53-.97-20.65-5.24-30.52-8.74-35.16-13.56-66.78-36.36-89.79-65.96-.59-.75-.51-1.81.13-2.48l4.53-4.61c.71-.74,1.87-.74,2.6-.02,16.29,15.82,35.21,29,55.77,38.7,18.34,8.92,38,14.3,58.02,17.84.51.09.98.3,1.38.59.42.3.76.69,1,1.15.25.46.38.98.39,1.53l.15,18.62Z"/>
  <path class="cls-1" d="m428.11,305.06h-1v-1.15c.42.3.76.69,1,1.15Z"/>
  <path class="cls-1" d="m532.09,120.95c0,25.65,0,51.29,0,76.94h0v11.02h0c0,25.65,0,51.29,0,76.94,0,6.9,2.3,13.25,6.19,18.35,5.53,7.25,14.25,11.91,24.06,11.91,6.98,0,13.39-2.36,18.51-6.31.6-.47,1.19-.96,1.76-1.46,1.07-.97,2.44-1.53,3.87-1.53,3.21,0,5.83,2.62,5.83,5.82v18.03c0,1.38-1.04,2.54-2.41,2.73-7.71,3.02-44.86,6.95-71.05,7.12-26.19-.17-63.34-4.1-71.05-7.12-1.37-.19-2.41-1.36-2.41-2.73v-18.03c0-3.2,2.62-5.82,5.83-5.82,1.43,0,2.8.57,3.87,1.53.57.51,1.15.99,1.76,1.46,5.12,3.95,11.53,6.31,18.51,6.31,9.81,0,18.53-4.66,24.06-11.91,3.89-5.1,6.19-11.45,6.19-18.35,0-25.65,0-51.29,0-76.94h0v-11.02h0c0-25.65,0-51.29,0-76.94,0-6.9-2.3-13.25-6.19-18.35-5.53-7.25-14.25-11.91-24.06-11.91-6.98,0-13.39,2.36-18.51,6.31-.6.47-1.19.96-1.76,1.46-1.07.97-2.44,1.53-3.87,1.53-3.21,0-5.83-2.62-5.83-5.82v-18.03c0-1.37,1.04-2.54,2.41-2.73,7.71-3.02,44.86-6.95,71.05-7.12,26.19.17,63.34,4.1,71.05,7.12,1.37.2,2.41,1.36,2.41,2.73v18.03c0,3.2-2.62,5.82-5.83,5.82-1.43,0-2.8-.57-3.87-1.53-.57-.51-1.15-.99-1.76-1.46-5.12-3.95-11.53-6.31-18.51-6.31-9.81,0-18.53,4.66-24.06,11.91-3.89,5.1-6.19,11.45-6.19,18.35Z"/>
</svg>