<?xml version="1.0" encoding="UTF-8"?>
<svg id="Layer_2" data-name="Layer 2" xmlns="http://www.w3.org/2000/svg" viewBox="0 0 50 50">
  <defs>
    <style>
      .cls-1 {
        fill: #fff;
        stroke-width: 0px;
      }
    </style>
  </defs>
  <path class="cls-1" d="m47.32,49.73c-.68,0-1.37-.26-1.89-.78L.79,4.58c-1.05-1.04-1.05-2.74-.01-3.79,1.04-1.05,2.74-1.05,3.79-.01l44.64,44.37c1.05,1.04,1.05,2.74.01,3.79-.52.53-1.21.79-1.9.79Z"/>
  <path class="cls-1" d="m2.68,50c-.69,0-1.37-.26-1.89-.78-1.05-1.05-1.05-2.74,0-3.79L45.43.78c1.05-1.05,2.74-1.05,3.79,0,1.05,1.05,1.05,2.74,0,3.79L4.57,49.22c-.52.52-1.21.78-1.89.78Z"/>
</svg>