<?xml version="1.0" encoding="UTF-8"?>
<svg id="Layer_1" data-name="Layer 1" xmlns="http://www.w3.org/2000/svg" viewBox="0 0 1652.98 1623.88">
  <defs>
    <style>
      .cls-1 {
        fill: #fff;
      }

      .cls-1, .cls-2 {
        stroke-width: 0px;
      }

      .cls-2 {
        fill: #4B4444;
      }
    </style>
  </defs>
  <rect class="cls-2" x="323.98" y="309.43" width="1005.03" height="1005.03" rx="219.25" ry="219.25"/>
  <path class="cls-1" d="m998.86,1171.85h-344.74c-25.31,0-49.87-4.96-73.01-14.75-22.33-9.45-42.39-22.97-59.6-40.18-17.22-17.22-30.74-37.27-40.18-59.6-9.79-23.14-14.75-47.7-14.75-73.01v-344.74c0-25.31,4.96-49.87,14.75-73.01,9.45-22.33,22.97-42.39,40.18-59.6,17.22-17.22,37.27-30.74,59.6-40.18,23.14-9.79,47.7-14.75,73.01-14.75h344.74c25.31,0,49.87,4.96,73.01,14.75,22.33,9.45,42.39,22.97,59.6,40.18,17.22,17.22,30.74,37.27,40.18,59.6,9.79,23.14,14.75,47.7,14.75,73.01v344.74c0,25.31-4.96,49.87-14.75,73.01-9.45,22.33-22.97,42.39-40.18,59.6-17.22,17.22-37.27,30.74-59.6,40.18-23.14,9.79-47.7,14.75-73.01,14.75Zm-344.74-673.98c-37.85,0-73.44,14.74-100.2,41.51-26.77,26.77-41.51,62.35-41.51,100.2v344.74c0,37.85,14.74,73.44,41.51,100.2,26.77,26.77,62.35,41.51,100.2,41.51h344.74c37.85,0,73.44-14.74,100.2-41.51,26.77-26.77,41.51-62.35,41.51-100.2v-344.74c0-37.85-14.74-73.44-41.51-100.2-26.77-26.77-62.35-41.51-100.2-41.51h-344.74Z"/>
  <path class="cls-1" d="m826.49,1000.16c-25.4,0-50.05-4.98-73.27-14.8-22.42-9.48-42.54-23.05-59.82-40.33-17.28-17.28-30.84-37.4-40.33-59.82-9.82-23.22-14.8-47.88-14.8-73.27s4.98-50.05,14.8-73.27c9.48-22.42,23.05-42.54,40.33-59.82,17.28-17.28,37.4-30.84,59.82-40.33,23.22-9.82,47.88-14.8,73.27-14.8s50.05,4.98,73.27,14.8c22.42,9.48,42.54,23.05,59.82,40.33,17.28,17.28,30.84,37.4,40.33,59.82,9.82,23.22,14.8,47.88,14.8,73.27s-4.98,50.05-14.8,73.27c-9.48,22.42-23.05,42.54-40.33,59.82s-37.4,30.84-59.82,40.33c-23.22,9.82-47.88,14.8-73.27,14.8Zm0-319.15c-34.97,0-67.85,13.62-92.58,38.35-24.73,24.73-38.35,57.61-38.35,92.58s13.62,67.85,38.35,92.58c24.73,24.73,57.61,38.35,92.58,38.35s67.85-13.62,92.58-38.35c24.73-24.73,38.35-57.61,38.35-92.58s-13.62-67.85-38.35-92.58c-24.73-24.73-57.61-38.35-92.58-38.35Z"/>
  <circle class="cls-1" cx="1034.3" cy="606.39" r="41.52"/>
</svg>